<svg id="Layer_1" data-name="Layer 1" xmlns="http://www.w3.org/2000/svg" viewBox="0 0 127.26 27.41"><defs><style>.cls-1{fill:#eb2227;}.cls-2{fill:#231f20;}</style></defs><title>Logo</title><path class="cls-1" d="M21.44,34V48.67A5.31,5.31,0,0,0,26.73,54H41.45a5.31,5.31,0,0,0,5.29-5.3V34a5.3,5.3,0,0,0-5.29-5.29H26.73A5.3,5.3,0,0,0,21.44,34Zm10,7.38-.33-2.25c-.8-.22-3-.9-3.55-2.09A3.54,3.54,0,0,1,28,33.87v1.26a1.56,1.56,0,0,0,1.56,1.57h2.59a1.56,1.56,0,0,1,1.56,1.56V48.77H27.56a6.24,6.24,0,0,1,2-4.54l.59-.56C31.53,42.34,31.48,41.47,31.47,41.34Zm5.28-1.87a.39.39,0,0,0,.11.27l1.28,1.35a.93.93,0,0,1-.67,1.56h-.53a.93.93,0,0,0-.92.85l-.39,5.27H34.46V38.26A1.56,1.56,0,0,1,36,36.7h2.59a1.56,1.56,0,0,0,1.56-1.57V33.87A3.54,3.54,0,0,1,40.59,37C40,38.19,37.84,38.87,37,39.09A.39.39,0,0,0,36.75,39.47Z" transform="translate(-21.44 -28.67)"/><path class="cls-2" d="M64.44,35.9H58.86V50.65H54.67V35.9H49.09V32.31H64.44Z" transform="translate(-21.44 -28.67)"/><path class="cls-2" d="M80.58,50.65H76.7V42.92a2.25,2.25,0,0,0-2.46-2.46,5.36,5.36,0,0,0-3.43,1.34v8.85H66.9V32.31h3.91v6.76a8.93,8.93,0,0,1,5.13-1.78c2.86,0,4.64,1.68,4.64,4.48Z" transform="translate(-21.44 -28.67)"/><path class="cls-2" d="M90.14,50.91a11.77,11.77,0,0,1-7.2-2.48l2.49-2.78a7.47,7.47,0,0,0,4.43,1.65c1.88,0,3.11-1,3.11-2.49s-1.07-2.17-3-2.17a13.64,13.64,0,0,0-2.83.41l-.68-2.33,5-4.4H84.09V32.84H96.62v3L91.9,40a5.09,5.09,0,0,1,5.29,5.11C97.19,48.48,94.31,50.91,90.14,50.91Z" transform="translate(-21.44 -28.67)"/><path class="cls-2" d="M115.24,36H104.76V39.6h9.72v3.53h-9.72v3.8h10.67v3.72H100.6V32.31h14.64Z" transform="translate(-21.44 -28.67)"/><path class="cls-2" d="M131.91,50.65H128V42.92a2.25,2.25,0,0,0-2.46-2.46,5.41,5.41,0,0,0-3.44,1.34v8.85h-3.9V37.55h3.9v1.52a9,9,0,0,1,5.14-1.78c2.86,0,4.64,1.68,4.64,4.48Z" transform="translate(-21.44 -28.67)"/><path class="cls-2" d="M148.7,37.55V49.81a5.66,5.66,0,0,1-1.91,4.72,7.63,7.63,0,0,1-4.95,1.55,13.55,13.55,0,0,1-7-1.68l1.18-2.62a10.23,10.23,0,0,0,5.11,1.31c2.18,0,3.62-1.05,3.62-3.28v-.76a5.5,5.5,0,0,1-4.17,1.76c-3.4.08-6.13-3-6-6.76-.08-3.8,2.65-6.81,6-6.76a5.5,5.5,0,0,1,4.17,1.76v-1.5Zm-3.9,4.59a3.65,3.65,0,0,0-3.12-1.57,3.49,3.49,0,0,0,0,7,3.66,3.66,0,0,0,3.12-1.59Z" transform="translate(-21.44 -28.67)"/></svg>